<svg width="1920" height="1440" xmlns="http://www.w3.org/2000/svg" xmlns:xlink="http://www.w3.org/1999/xlink" overflow="hidden"><defs><clipPath id="clip0"><rect x="0" y="0" width="1920" height="1440"/></clipPath></defs><g clip-path="url(#clip0)"><rect x="0" y="0" width="1920" height="1440" fill="#FFFFFF"/><path d="M464 718 1464.94 718 1464.94 722 464 722ZM1453.95 711.273 1468.91 720 1453.95 728.728C1452.99 729.284 1451.77 728.962 1451.21 728.008 1450.66 727.054 1450.98 725.829 1451.93 725.273L1463.93 718.273 1463.93 721.728 1451.93 714.728C1450.98 714.171 1450.66 712.946 1451.21 711.992 1451.77 711.038 1452.99 710.716 1453.95 711.273Z"/><path d="M2-2.06434e-07 2.0001 1013.18-1.9999 1013.18-2 2.06434e-07ZM8.72766 1002.19 0.000104989 1017.16-8.72745 1002.19C-9.28401 1001.24-8.96174 1000.01-8.00764 999.458-7.05353 998.902-5.8289 999.224-5.27234 1000.18L1.72766 1012.18-1.72745 1012.18 5.27254 1000.18C5.82911 999.224 7.05374 998.902 8.00784 999.458 8.96195 1000.01 9.28422 1001.24 8.72766 1002.19Z" transform="matrix(1 0 0 -1 957 1212.15)"/><path d="M0 0 735.363 743.64" stroke="#000000" stroke-width="4" stroke-dasharray="16 12" fill="none" fill-rule="evenodd" transform="matrix(1 0 0 -1 565 1114.64)"/><path d="M586 371 1324.95 1065.31" stroke="#000000" stroke-width="4" stroke-dasharray="16 12" fill="none" fill-rule="evenodd"/><path d="M524.5 723C524.5 480.271 717.913 283.5 956.5 283.5 1195.09 283.5 1388.5 480.271 1388.5 723 1388.5 965.729 1195.09 1162.5 956.5 1162.5 717.913 1162.5 524.5 965.729 524.5 723Z" stroke="#FFA295" stroke-width="3" stroke-dasharray="9 3" fill="none" fill-rule="evenodd"/><path d="M1263 1017.5C1263 1011.15 1268.37 1006 1275 1006 1281.63 1006 1287 1011.15 1287 1017.5 1287 1023.85 1281.63 1029 1275 1029 1268.37 1029 1263 1023.85 1263 1017.5Z" stroke="#FA1F00" stroke-width="8" fill="none" fill-rule="evenodd"/><path d="M1375 720C1375 713.373 1380.37 708 1387 708 1393.63 708 1399 713.373 1399 720 1399 726.627 1393.63 732 1387 732 1380.37 732 1375 726.627 1375 720Z" stroke="#FA1F00" stroke-width="8" fill="none" fill-rule="evenodd"/><path d="M1249 412.5C1249 406.149 1254.6 401 1261.5 401 1268.4 401 1274 406.149 1274 412.5 1274 418.851 1268.4 424 1261.5 424 1254.6 424 1249 418.851 1249 412.5Z" stroke="#FA1F00" stroke-width="8" fill="none" fill-rule="evenodd"/><path d="M945 283.5C945 277.149 950.596 272 957.5 272 964.404 272 970 277.149 970 283.5 970 289.851 964.404 295 957.5 295 950.596 295 945 289.851 945 283.5Z" stroke="#FA1F00" stroke-width="8" fill="none" fill-rule="evenodd"/><text font-family="KaiTi,KaiTi_MSFontService,sans-serif" font-weight="400" font-size="59" transform="translate(1382.33 811)">“0”<tspan font-size="59" x="-106.186" y="-345">“2”</tspan><tspan font-size="59" x="-409.805" y="-536">“1”</tspan><tspan font-size="59" x="-162.851" y="320">“3”</tspan></text></g></svg>